# xmcd
# 
# Track frame offsets:
#     150
#     16926
#     25704
#     42851
#     58903
#     76513
#     97958
#     117163
#     136929
#     142829
#     162445
#     185864
#     202883
#     223113
#     236742
#     258203
#     278012
# 
# Disc length: 4038
# 
# Revision: 2
# Processed by: cddbd v1.5.2PL0 Copyright (c) Steve Scherf et al.
# Submitted via: fre:ac v1.0.17
# 
DISCID=e10fc411
DTITLE=Da' T.R.U.T.H. - The Big Picture
DYEAR=2009
DGENRE=Christian Rap
TTITLE0=U ready?
TTITLE1=The big picture interlude ft. Kirk Franklin
TTITLE2=Legend
TTITLE3=Tree to tree ft. Tye Tribbett
TTITLE4=Intermission ft. Chris Graham
TTITLE5=Lost ft. Tia Pittman
TTITLE6=Trumpet blow ft. Trip Lee
TTITLE7=You made
TTITLE8=Applying the big picture ft. Kirk Franklin
TTITLE9=My president
TTITLE10=Great wall ft. Freddy Washington, Jr
TTITLE11=Fantasy ft. J.R.
TTITLE12=Talk to You ft. GP
TTITLE13=That great day (Remix)
TTITLE14=How long ft. Deluge Band
TTITLE15=Pain
TTITLE16=Suitcase ft. Jahaziel, Stephen the Levite and Swoope
EXTD=
EXTT0=
EXTT1=
EXTT2=
EXTT3=
EXTT4=
EXTT5=
EXTT6=
EXTT7=
EXTT8=
EXTT9=
EXTT10=
EXTT11=
EXTT12=
EXTT13=
EXTT14=
EXTT15=
EXTT16=
PLAYORDER=
